<svg width="114" height="114" xmlns="http://www.w3.org/2000/svg" xmlns:xlink="http://www.w3.org/1999/xlink" overflow="hidden"><defs><clipPath id="clip0"><rect x="583" y="303" width="114" height="114"/></clipPath></defs><g clip-path="url(#clip0)" transform="translate(-583 -303)"><path d="M653.366 394.065C653.538 394.049 653.711 394.038 653.884 394.032 653.904 394.032 653.924 394.031 653.944 394.029 654.127 394.012 658.454 393.564 660.907 390.736 663.942 387.236 665.255 381.131 662.469 378.198 661.102 376.755 659.469 376.13 657.871 376.437 656.278 376.742 654.877 377.946 654.215 379.579 654.074 379.929 654.19 380.331 654.495 380.55 654.8 380.768 655.214 380.745 655.494 380.495 656.192 379.869 656.875 379.608 657.416 379.756 657.902 379.89 658.311 380.371 658.538 381.079 658.743 381.715 658.618 382.577 658.235 383.173 658.106 383.373 657.834 383.715 657.464 383.754 656.266 383.886 654.498 382.396 652.631 380.827 650.787 379.277 648.697 377.52 646.343 376.549 643.152 375.226 634.386 373.284 628.24 377.957 628.213 377.973 628.186 377.987 628.161 378.005 628.01 378.121 624.479 380.855 623.693 383.76 622.419 386.484 622.252 389.025 623.195 391.336 622.423 391.956 622 392.732 622 393.578 622 395.435 624.065 396.912 626.783 397.072 626.504 397.504 626.348 397.982 626.348 398.489 626.348 400.458 628.666 402 631.625 402 633.783 402 635.594 401.18 636.422 399.974 637.248 401.18 639.058 402 641.212 402 644.173 402 646.493 400.458 646.493 398.489 646.493 397.987 646.34 397.507 646.06 397.072 647.796 396.966 649.324 396.313 650.162 395.324 650.299 395.302 650.429 395.245 650.537 395.157 651.164 394.654 652.338 394.303 653.366 394.065ZM657.703 391.2C656.937 391.606 656.149 391.883 655.483 392.067 655.456 392.059 655.429 392.051 655.401 392.046 655.866 388.201 653.731 384.461 652.803 383.075 654.112 384.138 655.323 384.993 656.497 385.281 657.243 386.517 658.001 388.496 657.703 391.2ZM651.095 393.04C650.94 392.496 650.398 391.491 649.639 389.762 648.461 387.081 645.867 383.52 640.185 381.777 632.629 379.457 628.605 380.574 626.68 381.687 626.803 381.539 626.927 381.394 627.053 381.254 627.158 381.205 627.251 381.134 627.326 381.045 627.871 380.396 628.485 379.809 629.156 379.294 631.783 378.353 635.797 377.938 641.596 379.718 649.335 382.098 651.66 387.772 652.301 390.1 652.519 390.885 652.672 391.78 652.682 392.506 652.619 392.515 652.555 392.523 652.49 392.533 652.346 392.555 652.211 392.617 652.099 392.71 651.76 392.805 651.425 392.915 651.095 393.04ZM639.335 385.381C638.189 385.663 637.244 386.198 636.644 386.891 635.739 385.847 634.05 385.155 632.07 385.155 631.388 385.155 630.743 385.241 630.149 385.391 632.087 384.721 634.538 384.528 637.054 384.894 637.824 385.005 638.586 385.167 639.335 385.381ZM632.07 386.781C634.172 386.781 635.742 387.775 635.742 388.664 635.742 389.138 635.307 389.64 634.585 390.003 634.389 390.099 634.177 390.185 633.952 390.259 633.385 390.447 632.734 390.546 632.07 390.546 629.971 390.546 628.402 389.553 628.402 388.664 628.402 387.773 629.909 386.781 632.07 386.781ZM634.514 391.989C634.724 391.918 634.937 391.86 635.154 391.815 635.572 391.733 635.996 391.692 636.421 391.693 638.582 391.693 640.087 392.686 640.087 393.578 640.087 394.47 638.582 395.463 636.421 395.463 634.259 395.463 632.753 394.47 632.753 393.578 632.753 392.967 633.441 392.343 634.514 391.989ZM637.547 388.664C637.547 387.773 639.052 386.781 641.212 386.781 641.579 386.781 641.922 386.811 642.266 386.871 643.725 387.111 644.854 387.87 644.854 388.609L644.854 388.664C644.854 389.268 644.151 389.909 643.083 390.259 642.513 390.447 641.868 390.546 641.205 390.546 639.044 390.546 637.547 389.554 637.547 388.664ZM626.348 390.129C626.288 389.801 626.27 389.472 626.306 389.148 626.393 388.378 626.767 387.655 627.388 387.025 627.009 387.512 626.793 388.067 626.793 388.664 626.793 389.167 626.946 389.641 627.221 390.07 626.929 390.073 626.638 390.092 626.348 390.129ZM646.105 390.002C646.119 390.031 646.131 390.061 646.146 390.09 646.115 390.088 646.085 390.087 646.054 390.086 646.072 390.058 646.088 390.029 646.105 390.002ZM623.609 393.578C623.609 393.147 623.968 392.693 624.595 392.331 625.046 392.07 625.607 391.88 626.231 391.781 626.577 391.722 626.927 391.692 627.277 391.693 629.44 391.693 630.948 392.686 630.948 393.578 630.948 394.071 630.499 394.464 630.232 394.653 629.505 395.168 628.428 395.463 627.277 395.463 625.115 395.463 623.609 394.47 623.609 393.578ZM631.625 400.375C629.463 400.375 627.957 399.466 627.957 398.574 627.957 397.684 629.525 396.774 631.625 396.774L631.663 396.774C631.676 396.774 631.688 396.689 631.701 396.691 631.723 396.693 631.746 396.652 631.768 396.652 632.842 396.674 633.847 396.932 634.526 397.398 634.814 397.594 635.296 397.989 635.296 398.5 635.296 399.392 633.789 400.375 631.625 400.375ZM641.212 400.375C639.052 400.375 637.547 399.381 637.547 398.49 637.547 398.203 637.697 397.914 637.994 397.628 638.004 397.62 638.015 397.611 638.025 397.601 638.706 396.986 639.927 396.604 641.212 396.604 641.877 396.604 642.525 396.704 643.096 396.896 644.166 397.24 644.884 397.88 644.884 398.49 644.884 399.381 643.375 400.375 641.212 400.375ZM649.068 394.098C648.653 394.756 647.378 395.463 645.56 395.463 644.951 395.463 644.37 395.382 643.83 395.222 642.671 394.886 641.892 394.225 641.892 393.578 641.892 392.966 642.586 392.341 643.661 391.984 644.233 391.794 644.889 391.693 645.56 391.693 645.99 391.693 646.404 391.733 646.799 391.812 648.209 392.086 649.231 392.829 649.231 393.578 649.231 393.753 649.178 393.924 649.068 394.098Z" fill="#FF0000" fill-rule="evenodd"/><path d="M696 374.415 696 330.52C696 330.019 695.845 329.555 695.416 329.302 694.985 329.049 694.507 329.043 694.073 329.288L689.578 331.85 689.578 316.417C689.579 315.639 688.952 315.007 688.177 315.006 687.911 315.005 687.65 315.081 687.425 315.225L666.048 328.834C665.855 328.802 665.654 328.874 665.458 328.937 661.745 330.109 658.281 330.716 655.166 330.716L655.164 330.716C644.819 330.716 641.454 324.124 641.319 323.857 641.096 323.404 640.637 322.966 640.135 322.966L640.127 322.966C639.628 322.966 639.169 323.39 638.943 323.839 638.805 324.113 635.439 330.631 625.096 330.631 621.981 330.631 618.518 330.067 614.804 328.894 614.712 328.865 614.618 328.865 614.525 328.857L593.088 315.217C592.656 314.941 591.981 314.929 591.533 315.177 591.085 315.425 590.679 315.903 590.679 316.417L590.679 331.85 586.259 329.288C585.824 329.043 585.208 329.048 584.779 329.302 584.349 329.555 584 330.018 584 330.52L584 374.415C584 375.058 584.106 385.557 592.777 394.464 600.544 402.442 612.717 406.487 628.812 406.487 628.944 406.487 629.107 406.464 629.228 406.429 635.337 408.208 638.785 409.708 638.785 414.666 638.785 415.403 639.388 416 640.121 416 640.853 416 641.452 415.402 641.452 414.666 641.452 409.672 644.934 408.187 651.125 406.391 651.282 406.451 651.451 406.488 651.628 406.488 667.723 406.488 679.713 402.443 687.48 394.464 696.151 385.557 696 375.058 696 374.415ZM619.801 361.513C621.692 360.838 622.345 357.273 622.345 357.273 622.345 357.273 625.118 359.099 627.207 358.185 627.207 359.02 626.944 360.44 626.944 360.44 626.944 360.44 626.628 361.485 627.24 362.648 627.547 363.231 627.756 364.581 627.865 365.396 626.831 365.365 625.795 365.35 624.76 365.351 623.013 365.351 621.338 365.385 619.777 365.483 619.733 363.891 619.842 363.12 619.801 361.513ZM653.21 358.874 656.755 358.874C656.582 360.682 656.575 362.619 657.118 365.332 657.067 365.332 657.016 365.347 656.964 365.347L652.786 364.994C653.329 362.388 653.357 360.682 653.21 358.874ZM682.194 364.749C679.747 367.3 676.357 368.565 672.102 368.551 671.064 365.573 670.562 362.742 670.425 360.122L686.781 351.06C686.801 352.462 686.691 360.06 682.194 364.749ZM593.735 351.061 609.841 359.984C609.715 362.642 609.215 365.518 608.158 368.548 604.036 368.512 600.728 367.252 598.332 364.76 593.843 360.09 593.718 352.466 593.735 351.061ZM693.174 332.928 693.174 360.238 686.005 364.275C689.688 358.544 689.578 351.399 689.578 350.733L689.578 335.087 693.174 332.928ZM686.495 333.432 674.299 340.382C673.589 339.567 671.68 337.22 667.725 330.977L686.495 318.983 686.495 333.432ZM654.865 333.361C657.97 333.361 661.517 332.825 665.123 331.768 669.02 337.958 671.162 340.738 672.224 341.985 670.326 345.017 665.174 354.957 669.065 367.915 667.078 366.194 663.367 365.553 658.839 365.378 658.231 362.558 658.281 360.682 658.464 358.874L665.21 358.874C665.945 358.874 665.688 357.632 665.688 356.642L665.688 350.373C665.688 345.574 663.15 345.305 663.15 345.305 663.15 345.305 661.523 345.063 660.713 342.823 659.905 340.584 658.596 338.767 656.596 338.525 654.656 338.291 651.481 339.888 649.009 341.249 647.495 342.084 647.398 343.209 647.193 344.821 646.693 348.756 645.173 348.574 645.173 348.574 644.438 348.574 643.853 349.384 643.853 350.373L643.853 356.642C643.853 357.632 644.45 358.873 645.185 358.873L651.506 358.873C651.67 360.682 651.353 362.496 650.657 365.412 646.193 365.64 642.826 366.378 640.514 368.257L640.514 328.061C643.082 330.423 647.488 333.362 654.865 333.361ZM637.945 329.102 637.945 367.49C636.147 366.255 633.221 365.706 629.72 365.484 629.363 363.555 629.382 359.039 629.871 357.751 632.728 357.103 632.875 354.191 633.014 351.684 633.115 349.837 632.423 343.402 632.423 343.402 632.712 343.214 633.958 342.877 634.18 342.777 634.556 342.729 634.925 342.565 635.07 342.17 635.186 341.706 635.36 341.019 635.158 340.748 634.945 340.477 633.556 340.33 633.285 339.848 632.63 339.137 631.985 338.666 631.337 338.748 630.479 338.807 629.599 338.795 629.098 339.724 628.317 339.148 627.496 339.907 626.637 339.66 626.637 339.66 626.391 342.615 629.557 342.317L629.883 350.19C629.883 350.19 630.111 351.78 627.859 351.342 626.195 351.018 622.181 349.473 620.257 350.03 618.806 350.45 617.223 351.184 616.308 354.245 615.394 357.306 616.895 356.273 616.895 356.273L618.462 355.199C618.462 355.199 619.604 357.863 618.3 359.374 617.261 360.576 617.712 361.489 617.712 361.489 617.712 361.489 618.159 364.24 618.108 365.62 615.17 365.92 612.758 366.527 611.222 367.691 614.988 354.842 609.848 344.997 607.962 341.984 609.024 340.737 611.089 337.958 614.989 331.768 618.596 332.825 621.955 333.361 625.06 333.361 631.377 333.361 635.376 331.204 637.945 329.102ZM593.761 318.983 612.423 330.869C608.569 336.956 606.705 339.382 605.929 340.291L593.761 333.432 593.761 318.983ZM590.679 335.087 590.679 350.733C590.679 351.399 590.441 358.545 594.123 364.275L586.825 360.238 586.825 332.929 590.679 335.087ZM587.646 378.802 605.6 388.749C605.609 388.753 605.617 388.756 605.626 388.761 607.129 393.305 610.521 396.856 615.341 400.583 616.676 401.615 618.112 402.447 619.59 403.146 608.903 401.887 600.644 398.333 594.972 392.53 590.326 387.777 588.425 382.438 587.646 378.802ZM640.13 409.549C637.971 406.123 633.466 404.845 628.773 403.514 624.665 402.348 620.417 401.033 616.958 398.358 608.063 391.478 604.792 385.739 609.627 372.048L670.633 372.048C675.469 385.739 672.198 391.477 663.302 398.358 659.842 401.033 655.594 402.293 651.486 403.459 646.794 404.79 642.288 406.123 640.13 409.549ZM685.583 392.489C679.851 398.377 671.465 401.958 660.589 403.184 662.095 402.477 663.559 401.634 664.919 400.582 669.698 396.886 673.074 393.363 674.596 388.875 674.708 388.847 674.815 388.804 674.915 388.749L692.88 378.797C692.11 382.414 690.221 387.726 685.583 392.489Z" fill="#FF0000" fill-rule="evenodd"/><path d="M640 322C648.399 321.917 655 317.996 655 313 655 308.004 648.399 304.083 640 304 631.567 304.083 625 308.004 625 313 625 317.996 631.567 321.917 640 322ZM640 307.444C644.345 307.45 647.42 309.017 647.42 311.094 647.42 312.579 645.678 313.909 642.974 314.477 640.408 315.255 641.37 316.088 640.038 316.891 640.035 316.892 640 316.89 640 316.89 639.998 316.89 639.995 316.892 639.993 316.891 638.661 316.088 639.638 315.255 637.072 314.477 634.368 313.909 632.603 312.579 632.603 311.094 632.603 309.017 635.781 307.45 640 307.444Z" fill="#FF0000" fill-rule="evenodd"/></g></svg>